PathFileType	4	(X/Y/Z)	s01c0103.trc
DataRate	CameraRate	NumFrames	NumMarkers	Units	OrigDataRate	OrigDataStartFrame	OrigNumFrames
200	200	4	48	mm	200	250	2000
Frame#	Time	racr			lacr			c7			jug			rlel			rdr			llel			ldr			s2			lic			ric			lasi			rasi			rpsi			lpsi			rgt			lgt			rth1			rth2			rth3			rth4			rlfc			rsh1			rsh2			rsh3			rsh4			rlmal			rmmal			rcal			rtoe			rmt5			lth1			lth2			lth4			lth3			llfc			lsh1			lsh2			lsh3			lsh4			llmal			lmmal			lcal			ltoe			lmt5			SBIKE			LBIKE			RBIKE			
		X1	Y1	Z1	X2	Y2	Z2	X3	Y3	Z3	X4	Y4	Z4	X5	Y5	Z5	X6	Y6	Z6	X7	Y7	Z7	X8	Y8	Z8	X9	Y9	Z9	X10	Y10	Z10	X11	Y11	Z11	X12	Y12	Z12	X13	Y13	Z13	X14	Y14	Z14	X15	Y15	Z15	X16	Y16	Z16	X17	Y17	Z17	X18	Y18	Z18	X19	Y19	Z19	X20	Y20	Z20	X21	Y21	Z21	X22	Y22	Z22	X23	Y23	Z23	X24	Y24	Z24	X25	Y25	Z25	X26	Y26	Z26	X27	Y27	Z27	X28	Y28	Z28	X29	Y29	Z29	X30	Y30	Z30	X31	Y31	Z31	X32	Y32	Z32	X33	Y33	Z33	X34	Y34	Z34	X35	Y35	Z35	X36	Y36	Z36	X37	Y37	Z37	X38	Y38	Z38	X39	Y39	Z39	X40	Y40	Z40	X41	Y41	Z41	X42	Y42	Z42	X43	Y43	Z43	X44	Y44	Z44	X45	Y45	Z45	X46	Y46	Z46	X47	Y47	Z47	X48	Y48	Z48	
250	1.2500	525.458217	1325.102541	-188.259423	476.514489	1327.558757	-484.099139	446.566235	1406.771949	-329.593823	464.657790	1244.061655	-315.936868	589.973064	1073.233777	-57.141886	733.932769	853.580682	-87.228950	514.628579	1045.791723	-572.106613	709.914075	895.705201	-438.863443	-85.057129	1212.422497	-263.988424	110.523080	1205.394667	-470.697613	84.865948	1208.675427	-112.827464	108.716192	1152.878700	-448.258877	104.607392	1157.271069	-138.135183	-52.959662	1247.562269	-207.978767	-58.191257	1245.054386	-314.697936	36.559322	1102.422995	-71.703920	14.385494	1074.702846	-451.430594	137.443522	1018.370781	-72.130450	207.059472	972.068865	-80.673840	275.721031	915.170184	-97.161406	235.665572	1013.586400	-104.042474	319.712708	811.077489	-120.268508	238.846466	728.462594	-78.999212	182.815359	664.640852	-78.335296	116.245335	605.045893	-85.036310	212.388371	635.775573	-122.209345	17.562829	519.547777	-96.678758	57.289560	512.879442	-178.232695	-38.438825	512.513077	-151.302531	180.571493	348.253479	-150.594017	81.190397	380.567170	-78.168394	79.611680	960.463959	-454.855937	151.712828	905.410265	-450.232409	186.622098	947.073872	-444.174729	213.409158	847.285347	-426.934490	292.695171	749.070085	-408.620910	259.432536	643.921741	-447.074261	259.513098	557.648682	-443.634729	256.649113	471.931616	-434.253569	312.409610	560.313582	-412.018965	250.565802	340.529652	-421.688647	410.324681	267.565250	-348.697977	197.642039	351.200021	-467.773614	491.445366	310.415058	-388.071786	389.003325	274.773395	-454.689058	-229.380323	890.041193	-256.646414	-24.123235	80.866613	-456.769256	-22.717170	80.017873	-56.205164	
251	1.2550	525.980460	1325.229185	-188.664779	477.186985	1327.692150	-484.725133	447.230844	1406.921629	-330.251877	464.636397	1243.985181	-316.578129	590.220245	1073.364928	-57.323886	734.064901	853.561323	-87.248719	514.951343	1045.665237	-572.333009	710.036293	895.252459	-440.773970	-83.893667	1210.651200	-265.327093	112.236322	1203.597242	-471.526032	85.432809	1208.187213	-113.368797	110.689643	1151.289134	-448.716379	105.523885	1157.051127	-138.481063	-52.240054	1246.169577	-209.136491	-56.912707	1243.420542	-315.824764	37.468415	1102.092216	-72.062018	17.100421	1072.728344	-451.830716	139.145636	1018.875055	-72.155187	209.310147	973.306318	-80.415750	278.727091	917.226112	-96.598854	237.540175	1015.011566	-103.806347	323.536207	813.383414	-119.631455	242.319675	731.184420	-78.598064	185.900247	667.705113	-78.093333	118.979790	608.502147	-84.953727	215.360524	638.665157	-121.916988	19.778037	523.850692	-96.672830	59.577835	516.998937	-178.215189	-36.324362	517.128523	-151.374342	181.852220	351.858841	-150.639217	82.718871	384.649391	-78.239390	81.805465	958.430101	-454.816907	153.662968	903.221214	-450.216363	188.658422	944.829806	-444.030048	215.212312	845.089847	-426.760604	293.739458	746.330294	-408.351413	259.685512	641.487466	-447.511290	260.481009	554.925551	-443.496346	257.051675	469.486928	-434.224111	313.055229	557.614827	-411.840908	250.651937	337.964514	-421.247783	407.221664	267.316243	-348.739845	197.578291	349.646807	-467.760263	491.047564	305.342658	-387.870687	388.681097	271.085837	-454.582788	-229.364577	890.037130	-256.624991	-24.103722	80.852185	-456.754550	-22.702087	80.021657	-56.207499	
252	1.2600	526.489176	1325.337544	-188.880554	477.912056	1327.837747	-485.363800	447.906858	1407.081082	-330.909194	464.578041	1243.891961	-317.246600	590.846400	1073.538018	-57.386767	734.397158	853.649404	-87.870933	515.430562	1045.560181	-572.502640	710.168163	894.781400	-442.629106	-82.627089	1208.802483	-266.706028	113.980328	1201.815723	-472.375748	86.095156	1207.648184	-113.826315	112.715280	1149.638146	-449.176054	106.564460	1156.792664	-138.746778	-51.388252	1244.735534	-210.353294	-55.607997	1241.714215	-316.973748	38.330214	1101.525323	-72.472919	19.871058	1070.663361	-452.208692	140.905595	1019.032739	-72.332769	211.592965	974.485029	-80.160338	281.683568	919.189846	-96.083000	239.424891	1016.567220	-103.508300	327.446404	815.758759	-119.016955	245.769619	733.929685	-78.290237	189.070395	670.784450	-77.863727	121.730963	612.017078	-84.875055	218.352269	641.638607	-121.674015	22.082126	528.072509	-96.665030	62.199967	521.172398	-178.121856	-34.107474	521.676953	-151.464785	183.312678	355.342153	-150.691583	84.305376	388.623514	-78.298386	84.076908	956.361441	-454.791499	155.686321	901.010792	-450.207311	190.921887	942.583314	-443.809106	217.231477	842.751155	-426.624333	294.830062	743.554159	-408.134659	260.537031	638.961974	-447.552818	261.094154	552.448831	-443.456316	257.373751	466.972445	-434.229028	313.673200	554.881448	-411.683144	250.703844	335.363235	-420.704965	404.051240	267.089705	-348.780970	197.545410	347.354447	-466.545823	490.382917	300.123291	-387.566125	388.052604	267.270425	-454.447114	-229.323409	890.061201	-256.641329	-24.068955	80.836968	-456.786900	-22.708420	80.025296	-56.216133	
253	1.2650	527.014785	1325.465974	-189.178306	478.693172	1327.991202	-486.010324	448.595073	1407.250224	-331.561763	464.481763	1243.781501	-317.942866	591.083687	1073.590903	-57.620504	734.446888	853.598436	-87.970942	515.661841	1045.408099	-572.675303	710.309856	894.291739	-444.426775	-81.269249	1206.910249	-268.053712	115.744452	1199.853180	-473.150009	86.792622	1206.986712	-114.321841	114.778872	1147.926123	-449.623166	107.553013	1156.511720	-139.027024	-50.528801	1243.212502	-211.545257	-54.277777	1239.939920	-318.145006	39.322028	1100.801561	-72.971912	22.679669	1068.522510	-452.568097	142.713512	1019.412816	-72.312907	213.917947	975.687019	-79.883807	284.674464	921.119530	-95.597427	241.378114	1018.117544	-103.069145	331.357075	818.128893	-118.442261	249.349724	736.776561	-77.940028	192.251727	673.952501	-77.656056	124.547852	615.635904	-84.757670	221.427281	644.577047	-121.434801	24.433250	532.418776	-96.644863	65.170137	525.383111	-177.951612	-31.790470	526.232483	-151.472309	184.875714	358.955517	-150.764148	86.000461	392.679176	-78.236308	86.407845	954.265037	-454.782044	157.756419	898.779896	-450.207331	192.947541	940.371556	-443.718434	219.052548	840.432293	-426.650709	295.958221	740.751529	-407.968252	261.520486	636.253849	-447.539831	261.627830	549.905257	-443.462041	257.622418	464.403871	-434.263358	314.194268	552.266832	-411.563998	250.703287	332.745819	-420.105449	400.812893	266.885758	-348.821311	197.531123	344.404801	-464.256796	489.479307	294.778218	-387.174802	387.148403	263.351654	-454.286010	-229.291518	890.127058	-256.635102	-24.083716	80.854715	-456.764170	-22.693957	80.016345	-56.210888	
